{
    "asset" : {
        "generator" : "Khronos glTF Blender I/O v1.8.19",
        "version" : "2.0"
    },
    "scene" : 0,
    "scenes" : [
        {
            "name" : "Scene",
            "nodes" : [
                0,
                1,
                2,
                3
            ]
        }
    ],
    "nodes" : [
        {
            "mesh" : 0,
            "name" : "Ellipse 3",
            "rotation" : [
                0,
                1,
                0,
                7.549790126404332e-08
            ],
            "scale" : [
                1,
                1,
                1
            ],
            "translation" : [
                50,
                200,
                -100
            ]
        },
        {
            "mesh" : 1,
            "name" : "Ellipse 2",
            "rotation" : [
                0,
                1,
                0,
                7.549790126404332e-08
            ],
            "scale" : [
                1,
                1,
                1
            ],
            "translation" : [
                -170,
                110,
                150
            ]
        },
        {
            "mesh" : 2,
            "name" : "Ellipse",
            "rotation" : [
                0,
                -1,
                0,
                7.549790126404332e-08
            ],
            "scale" : [
                0.10000000149011612,
                0.10000000149011612,
                0.10000000149011612
            ],
            "translation" : [
                180,
                -30,
                100
            ]
        },
        {
            "mesh" : 3,
            "name" : "Rectangle",
            "rotation" : [
                0,
                -1,
                0,
                7.549790126404332e-08
            ],
            "scale" : [
                0.10000000149011612,
                0.10000000149011612,
                0.10000000149011612
            ]
        }
    ],
    "materials" : [
        {
            "doubleSided" : true,
            "name" : "Material.008",
            "pbrMetallicRoughness" : {
                "baseColorTexture" : {
                    "index" : 0
                },
                "metallicFactor" : 0,
                "roughnessFactor" : 0.5
            }
        },
        {
            "doubleSided" : true,
            "name" : "Material.007",
            "pbrMetallicRoughness" : {
                "baseColorTexture" : {
                    "index" : 1
                },
                "metallicFactor" : 0,
                "roughnessFactor" : 0.5
            }
        },
        {
            "doubleSided" : true,
            "name" : "Material.005",
            "pbrMetallicRoughness" : {
                "baseColorTexture" : {
                    "index" : 2
                },
                "metallicFactor" : 0,
                "roughnessFactor" : 0.5
            }
        },
        {
            "doubleSided" : true,
            "name" : "Material.006",
            "pbrMetallicRoughness" : {
                "baseColorTexture" : {
                    "index" : 3
                },
                "metallicFactor" : 0,
                "roughnessFactor" : 0.5
            }
        }
    ],
    "meshes" : [
        {
            "name" : "Mesh_0.002",
            "primitives" : [
                {
                    "attributes" : {
                        "POSITION" : 0,
                        "NORMAL" : 1,
                        "TEXCOORD_0" : 2
                    },
                    "indices" : 3,
                    "material" : 0
                }
            ]
        },
        {
            "name" : "Mesh_1.001",
            "primitives" : [
                {
                    "attributes" : {
                        "POSITION" : 4,
                        "NORMAL" : 5,
                        "TEXCOORD_0" : 6
                    },
                    "indices" : 7,
                    "material" : 1
                }
            ]
        },
        {
            "name" : "Mesh_2.001",
            "primitives" : [
                {
                    "attributes" : {
                        "POSITION" : 8,
                        "NORMAL" : 9,
                        "TEXCOORD_0" : 10
                    },
                    "indices" : 11,
                    "material" : 2
                }
            ]
        },
        {
            "name" : "Mesh_3.001",
            "primitives" : [
                {
                    "attributes" : {
                        "POSITION" : 12,
                        "NORMAL" : 13,
                        "TEXCOORD_0" : 14
                    },
                    "indices" : 15,
                    "material" : 3
                }
            ]
        }
    ],
    "textures" : [
        {
            "sampler" : 0,
            "source" : 0
        },
        {
            "sampler" : 0,
            "source" : 1
        },
        {
            "sampler" : 0,
            "source" : 2
        },
        {
            "sampler" : 0,
            "source" : 3
        }
    ],
    "images" : [
        {
            "mimeType" : "image/png",
            "name" : "AGUA1",
            "uri" : "Textures/AGUA1.png"
        },
        {
            "mimeType" : "image/png",
            "name" : "AGUA4",
            "uri" : "Textures/AGUA4.png"
        },
        {
            "mimeType" : "image/png",
            "name" : "AGUA6",
            "uri" : "Textures/AGUA6.png"
        },
        {
            "mimeType" : "image/png",
            "name" : "AGUA22",
            "uri" : "Textures/AGUA22.png"
        }
    ],
    "accessors" : [
        {
            "bufferView" : 0,
            "componentType" : 5126,
            "count" : 88,
            "max" : [
                1441.5,
                1441.5,
                0
            ],
            "min" : [
                -1441.5,
                -1441.5,
                0
            ],
            "type" : "VEC3"
        },
        {
            "bufferView" : 1,
            "componentType" : 5126,
            "count" : 88,
            "type" : "VEC3"
        },
        {
            "bufferView" : 2,
            "componentType" : 5126,
            "count" : 88,
            "type" : "VEC2"
        },
        {
            "bufferView" : 3,
            "componentType" : 5123,
            "count" : 186,
            "type" : "SCALAR"
        },
        {
            "bufferView" : 4,
            "componentType" : 5126,
            "count" : 85,
            "max" : [
                632.5,
                632.5,
                0
            ],
            "min" : [
                -632.5,
                -632.5,
                0
            ],
            "type" : "VEC3"
        },
        {
            "bufferView" : 5,
            "componentType" : 5126,
            "count" : 85,
            "type" : "VEC3"
        },
        {
            "bufferView" : 6,
            "componentType" : 5126,
            "count" : 85,
            "type" : "VEC2"
        },
        {
            "bufferView" : 7,
            "componentType" : 5123,
            "count" : 186,
            "type" : "SCALAR"
        },
        {
            "bufferView" : 8,
            "componentType" : 5126,
            "count" : 87,
            "max" : [
                699.5,
                699.5,
                0
            ],
            "min" : [
                -699.5,
                -699.5,
                0
            ],
            "type" : "VEC3"
        },
        {
            "bufferView" : 9,
            "componentType" : 5126,
            "count" : 87,
            "type" : "VEC3"
        },
        {
            "bufferView" : 10,
            "componentType" : 5126,
            "count" : 87,
            "type" : "VEC2"
        },
        {
            "bufferView" : 11,
            "componentType" : 5123,
            "count" : 186,
            "type" : "SCALAR"
        },
        {
            "bufferView" : 12,
            "componentType" : 5126,
            "count" : 101,
            "max" : [
                1656.5,
                2328,
                0
            ],
            "min" : [
                -1656.5,
                -2328,
                0
            ],
            "type" : "VEC3"
        },
        {
            "bufferView" : 13,
            "componentType" : 5126,
            "count" : 101,
            "type" : "VEC3"
        },
        {
            "bufferView" : 14,
            "componentType" : 5126,
            "count" : 101,
            "type" : "VEC2"
        },
        {
            "bufferView" : 15,
            "componentType" : 5123,
            "count" : 246,
            "type" : "SCALAR"
        }
    ],
    "bufferViews" : [
        {
            "buffer" : 0,
            "byteLength" : 1056,
            "byteOffset" : 0
        },
        {
            "buffer" : 0,
            "byteLength" : 1056,
            "byteOffset" : 1056
        },
        {
            "buffer" : 0,
            "byteLength" : 704,
            "byteOffset" : 2112
        },
        {
            "buffer" : 0,
            "byteLength" : 372,
            "byteOffset" : 2816
        },
        {
            "buffer" : 0,
            "byteLength" : 1020,
            "byteOffset" : 3188
        },
        {
            "buffer" : 0,
            "byteLength" : 1020,
            "byteOffset" : 4208
        },
        {
            "buffer" : 0,
            "byteLength" : 680,
            "byteOffset" : 5228
        },
        {
            "buffer" : 0,
            "byteLength" : 372,
            "byteOffset" : 5908
        },
        {
            "buffer" : 0,
            "byteLength" : 1044,
            "byteOffset" : 6280
        },
        {
            "buffer" : 0,
            "byteLength" : 1044,
            "byteOffset" : 7324
        },
        {
            "buffer" : 0,
            "byteLength" : 696,
            "byteOffset" : 8368
        },
        {
            "buffer" : 0,
            "byteLength" : 372,
            "byteOffset" : 9064
        },
        {
            "buffer" : 0,
            "byteLength" : 1212,
            "byteOffset" : 9436
        },
        {
            "buffer" : 0,
            "byteLength" : 1212,
            "byteOffset" : 10648
        },
        {
            "buffer" : 0,
            "byteLength" : 808,
            "byteOffset" : 11860
        },
        {
            "buffer" : 0,
            "byteLength" : 492,
            "byteOffset" : 12668
        }
    ],
    "samplers" : [
        {
            "magFilter" : 9729,
            "minFilter" : 9987
        }
    ],
    "buffers" : [
        {
            "byteLength" : 13160,
            "uri" : "Agua.bin"
        }
    ]
}
