{"asset":{"generator":"Khronos glTF Spline I/O v0.0.1","version":"2.0"},"scenes":[{"nodes":[0]}],"nodes":[{"name":"","children":[1,2,3,4,5,6,7]},{"name":"AGUA 1.png","matrix":[1,0,0,0,0,1,0,0,0,0,1,0,1104.1945610376135,2937.9511439672806,-200,1],"mesh":0},{"name":"AGUA 3.png","matrix":[1,0,0,0,0,1,0,0,0,0,1,0,214.99901228859972,616.1183155886631,100,1],"mesh":1},{"name":"AGUA 6.png","matrix":[1,0,0,0,0,1,0,0,0,0,1,0,1653.3576253582764,515.6508014013616,500,1],"mesh":2},{"name":"AGUA 2.png","matrix":[1,0,0,0,0,1,0,0,0,0,1,0,202,819,0,1],"mesh":3},{"name":"AGUA 4.png","matrix":[1,0,0,0,0,1,0,0,0,0,3.1010962855029796,0,-963.7470589073367,2103.5454866860496,646.65,1],"mesh":4},{"name":"Directional Light","translation":[200,300,300],"rotation":[-0.4062840720729887,0.12301291902225084,-0.2623788760260691,0.8665785595944042],"extensions":{"KHR_lights_punctual":{"light":0}}},{"name":"Personal Camera","camera":0,"translation":[374.7000921218346,1602.0324871449263,6812.587367385412],"rotation":[-0.11297464871171324,0.04685098094558724,0.0053330867332077505,0.9924783486398066]}],"cameras":[{"type":"perspective","perspective":{"aspectRatio":2.0182599355531687,"yfov":0.7853981633974483,"znear":5,"zfar":100000}}],"meshes":[{"primitives":[{"attributes":{"POSITION":1,"NORMAL":2,"TEXCOORD_0":3},"indices":0}]},{"primitives":[{"attributes":{"POSITION":5,"NORMAL":6,"TEXCOORD_0":7},"indices":4}]},{"primitives":[{"attributes":{"POSITION":9,"NORMAL":10,"TEXCOORD_0":11},"indices":8}]},{"primitives":[{"attributes":{"POSITION":13,"NORMAL":14,"TEXCOORD_0":15},"indices":12}]},{"primitives":[{"attributes":{"POSITION":17,"NORMAL":18,"TEXCOORD_0":19},"indices":16}]}],"buffers":[{"uri":"data:application/octet-stream;base64,","byteLength":152},{"uri":"data:application/octet-stream;base64,","byteLength":152},{"uri":"data:application/octet-stream;base64,","byteLength":152},{"uri":"data:application/octet-stream;base64,","byteLength":152},{"uri":"data:application/octet-stream;base64,","byteLength":152}],"bufferViews":[{"buffer":0,"byteOffset":0,"byteLength":24,"target":34963},{"buffer":0,"byteOffset":24,"byteLength":48,"target":34962},{"buffer":0,"byteOffset":72,"byteLength":48,"target":34962},{"buffer":0,"byteOffset":120,"byteLength":32,"target":34962},{"buffer":1,"byteOffset":0,"byteLength":24,"target":34963},{"buffer":1,"byteOffset":24,"byteLength":48,"target":34962},{"buffer":1,"byteOffset":72,"byteLength":48,"target":34962},{"buffer":1,"byteOffset":120,"byteLength":32,"target":34962},{"buffer":2,"byteOffset":0,"byteLength":24,"target":34963},{"buffer":2,"byteOffset":24,"byteLength":48,"target":34962},{"buffer":2,"byteOffset":72,"byteLength":48,"target":34962},{"buffer":2,"byteOffset":120,"byteLength":32,"target":34962},{"buffer":3,"byteOffset":0,"byteLength":24,"target":34963},{"buffer":3,"byteOffset":24,"byteLength":48,"target":34962},{"buffer":3,"byteOffset":72,"byteLength":48,"target":34962},{"buffer":3,"byteOffset":120,"byteLength":32,"target":34962},{"buffer":4,"byteOffset":0,"byteLength":24,"target":34963},{"buffer":4,"byteOffset":24,"byteLength":48,"target":34962},{"buffer":4,"byteOffset":72,"byteLength":48,"target":34962},{"buffer":4,"byteOffset":120,"byteLength":32,"target":34962}],"accessors":[{"bufferView":0,"byteOffset":0,"componentType":5125,"count":6,"type":"SCALAR","min":[0],"max":[3]},{"bufferView":1,"byteOffset":0,"componentType":5126,"count":4,"type":"VEC3","min":[-1510.5,-1494,0],"max":[1510.5,1494,0]},{"bufferView":2,"byteOffset":0,"componentType":5126,"count":4,"type":"VEC3","min":[0,0,1],"max":[0,0,1]},{"bufferView":3,"byteOffset":0,"componentType":5126,"count":4,"type":"VEC2","min":[0,0],"max":[1,1]},{"bufferView":4,"byteOffset":0,"componentType":5125,"count":6,"type":"SCALAR","min":[0],"max":[3]},{"bufferView":5,"byteOffset":0,"componentType":5126,"count":4,"type":"VEC3","min":[-1546.5,-2042,0],"max":[1546.5,2042,0]},{"bufferView":6,"byteOffset":0,"componentType":5126,"count":4,"type":"VEC3","min":[0,0,1],"max":[0,0,1]},{"bufferView":7,"byteOffset":0,"componentType":5126,"count":4,"type":"VEC2","min":[0,0],"max":[1,1]},{"bufferView":8,"byteOffset":0,"componentType":5125,"count":6,"type":"SCALAR","min":[0],"max":[3]},{"bufferView":9,"byteOffset":0,"componentType":5126,"count":4,"type":"VEC3","min":[-745.5,-737.5,0],"max":[745.5,737.5,0]},{"bufferView":10,"byteOffset":0,"componentType":5126,"count":4,"type":"VEC3","min":[0,0,1],"max":[0,0,1]},{"bufferView":11,"byteOffset":0,"componentType":5126,"count":4,"type":"VEC2","min":[0,0],"max":[1,1]},{"bufferView":12,"byteOffset":0,"componentType":5125,"count":6,"type":"SCALAR","min":[0],"max":[3]},{"bufferView":13,"byteOffset":0,"componentType":5126,"count":4,"type":"VEC3","min":[-1765.5,-2433,0],"max":[1765.5,2433,0]},{"bufferView":14,"byteOffset":0,"componentType":5126,"count":4,"type":"VEC3","min":[0,0,1],"max":[0,0,1]},{"bufferView":15,"byteOffset":0,"componentType":5126,"count":4,"type":"VEC2","min":[0,0],"max":[1,1]},{"bufferView":16,"byteOffset":0,"componentType":5125,"count":6,"type":"SCALAR","min":[0],"max":[3]},{"bufferView":17,"byteOffset":0,"componentType":5126,"count":4,"type":"VEC3","min":[-674.5,-671.5,0],"max":[674.5,671.5,0]},{"bufferView":18,"byteOffset":0,"componentType":5126,"count":4,"type":"VEC3","min":[0,0,1],"max":[0,0,1]},{"bufferView":19,"byteOffset":0,"componentType":5126,"count":4,"type":"VEC2","min":[0,0],"max":[1,1]}],"extensions":{"KHR_lights_punctual":{"lights":[{"type":"directional","name":"Directional Light","color":[1,1,1],"intensity":0.7}]}},"extensionsUsed":["KHR_lights_punctual"]}