{"asset":{"generator":"Khronos glTF Spline I/O v0.0.1","version":"2.0"},"scenes":[{"nodes":[0]}],"nodes":[{"name":"","children":[1,2,3]},{"name":"Cylinder","matrix":[1,0,0,0,0,5.938570231670092e-16,2.674494268246295,0,0,-1.0000000000000195,2.220446049250356e-16,0,0,7.105427357601002e-14,213.98130592079212,1],"mesh":0},{"name":"Directional Light","translation":[200,300,300],"rotation":[-0.4062840720729887,0.12301291902225084,-0.2623788760260691,0.8665785595944042],"extensions":{"KHR_lights_punctual":{"light":0}}},{"name":"Personal Camera","camera":0,"translation":[1067.0798015544208,224.63547693133688,3159.2367754050897],"rotation":[-0.031749258768973894,0.10625057125219443,0.003394331501223131,0.9938265840627643]}],"cameras":[{"type":"perspective","perspective":{"aspectRatio":2.0182599355531687,"yfov":0.7853981633974483,"znear":5,"zfar":100000}}],"meshes":[{"primitives":[{"attributes":{"POSITION":1,"NORMAL":2,"TEXCOORD_0":3},"indices":0}]}],"buffers":[{"uri":"data:application/octet-stream;base64,","byteLength":13952}],"bufferViews":[{"buffer":0,"byteOffset":0,"byteLength":1536,"target":34963},{"buffer":0,"byteOffset":1536,"byteLength":4656,"target":34962},{"buffer":0,"byteOffset":6192,"byteLength":4656,"target":34962},{"buffer":0,"byteOffset":10848,"byteLength":3104,"target":34962}],"accessors":[{"bufferView":0,"byteOffset":0,"componentType":5123,"count":768,"type":"SCALAR","min":[0],"max":[387]},{"bufferView":1,"byteOffset":0,"componentType":5126,"count":388,"type":"VEC3","min":[-699.5,-1,-699.5],"max":[699.5,1,699.5]},{"bufferView":2,"byteOffset":0,"componentType":5126,"count":388,"type":"VEC3","min":[-1,-1,-1],"max":[1,1,1]},{"bufferView":3,"byteOffset":0,"componentType":5126,"count":388,"type":"VEC2","min":[0,0],"max":[1,1]}],"extensions":{"KHR_lights_punctual":{"lights":[{"type":"directional","name":"Directional Light","color":[1,1,1],"intensity":0.7}]}},"extensionsUsed":["KHR_lights_punctual"]}