{"asset":{"generator":"Khronos glTF Spline I/O v0.0.1","version":"2.0"},"scenes":[{"nodes":[0]}],"nodes":[{"name":"","children":[1,2,3]},{"name":"Ellipse","matrix":[1,0,0,0,0,1,0,0,0,0,1,0,0,0,0,1],"mesh":0},{"name":"Directional Light","translation":[200,300,300],"rotation":[-0.4062840720729887,0.12301291902225084,-0.2623788760260691,0.8665785595944042],"extensions":{"KHR_lights_punctual":{"light":0}}},{"name":"Personal Camera","camera":0,"translation":[919.3978575892047,1166.0147513866157,3492.198425844329],"rotation":[-0.15424008044504223,0.12679813897886166,0.019963411182849417,0.9796599878272813]}],"cameras":[{"type":"perspective","perspective":{"aspectRatio":2.0182599355531687,"yfov":0.7853981633974483,"znear":5,"zfar":100000}}],"meshes":[{"primitives":[{"attributes":{"POSITION":1,"NORMAL":2,"TEXCOORD_0":3},"indices":0}]}],"buffers":[{"uri":"data:application/octet-stream;base64,","byteLength":2792}],"bufferViews":[{"buffer":0,"byteOffset":0,"byteLength":744,"target":34963},{"buffer":0,"byteOffset":744,"byteLength":768,"target":34962},{"buffer":0,"byteOffset":1512,"byteLength":768,"target":34962},{"buffer":0,"byteOffset":2280,"byteLength":512,"target":34962}],"accessors":[{"bufferView":0,"byteOffset":0,"componentType":5125,"count":186,"type":"SCALAR","min":[0],"max":[63]},{"bufferView":1,"byteOffset":0,"componentType":5126,"count":64,"type":"VEC3","min":[-699.5,-699.5,0],"max":[699.5,699.5,0]},{"bufferView":2,"byteOffset":0,"componentType":5126,"count":64,"type":"VEC3","min":[0,0,1],"max":[0,0,1]},{"bufferView":3,"byteOffset":0,"componentType":5126,"count":64,"type":"VEC2","min":[0,0],"max":[1,1]}],"extensions":{"KHR_lights_punctual":{"lights":[{"type":"directional","name":"Directional Light","color":[1,1,1],"intensity":0.7}]}},"extensionsUsed":["KHR_lights_punctual"]}